<svg xmlns="http://www.w3.org/2000/svg" xmlns:xlink="http://www.w3.org/1999/xlink" width="381" height="237" viewBox="0 0 381 237"><defs><linearGradient id="linear-gradient" x1="0.5" y1="1" x2="0.54" gradientUnits="objectBoundingBox"><stop offset="0" stop-color="#a967ff"></stop><stop offset="1" stop-color="#3a00ff"></stop></linearGradient><linearGradient id="linear-gradient-2" x1="0.121" y1="0.822" x2="1.068" y2="0.102" gradientUnits="objectBoundingBox"><stop offset="0" stop-color="#ffdd8d"></stop><stop offset="1" stop-color="#f60"></stop></linearGradient><linearGradient id="linear-gradient-3" x1="0.929" y1="0.842" x2="-0.087" y2="0.201" gradientUnits="objectBoundingBox"><stop offset="0" stop-color="blue"></stop><stop offset="1" stop-color="#40a0f3"></stop></linearGradient></defs><g id="Diagrama" transform="translate(-780 -1931)"><circle id="Elipse_34" data-name="Elipse 34" cx="79" cy="79" r="79" transform="translate(881 2010)" opacity="0.5" fill="url(#linear-gradient)"></circle><circle id="Elipse_35" data-name="Elipse 35" cx="79" cy="79" r="79" transform="translate(941 1931)" opacity="0.5" fill="url(#linear-gradient-2)"></circle><circle id="Elipse_36" data-name="Elipse 36" cx="79" cy="79" r="79" transform="translate(821 1931)" opacity="0.5" fill="url(#linear-gradient-3)"></circle><circle id="Elipse_46" data-name="Elipse 46" cx="5" cy="5" r="5" transform="translate(1151 1995)" fill="#fff"></circle><circle id="Elipse_67" data-name="Elipse 67" cx="5" cy="5" r="5" transform="translate(780 1937)" fill="#fff"></circle><circle id="Elipse_66" data-name="Elipse 66" cx="5" cy="5" r="5" transform="translate(846 2123)" fill="#fff"></circle><g id="Elipse_43" data-name="Elipse 43" transform="translate(1068 1995)" fill="none" stroke="#fff" stroke-width="2"><circle cx="5" cy="5" r="5" stroke="none"></circle><circle cx="5" cy="5" r="4" fill="none"></circle></g><g id="Elipse_64" data-name="Elipse 64" transform="translate(864 1971)" fill="none" stroke="#fff" stroke-width="2"><circle cx="5" cy="5" r="5" stroke="none"></circle><circle cx="5" cy="5" r="4" fill="none"></circle></g><g id="Elipse_65" data-name="Elipse 65" transform="translate(931 2123)" fill="none" stroke="#fff" stroke-width="2"><circle cx="5" cy="5" r="5" stroke="none"></circle><circle cx="5" cy="5" r="4" fill="none"></circle></g><line id="L&#xED;nea_21" data-name="L&#xED;nea 21" x2="76" transform="translate(1076.5 2000.5)" fill="none" stroke="#fff" stroke-width="1"></line><path id="Trazado_14" data-name="Trazado 14" d="M-4726-23.8l-31.189-31.189h-49.65" transform="translate(5592 1997)" fill="none" stroke="#fff" stroke-width="1"></path><path id="Trazado_15" data-name="Trazado 15" d="M-4659.534,131h-81.827" transform="translate(5592 1997)" fill="none" stroke="#fff" stroke-width="1"></path></g></svg>