<svg xmlns="http://www.w3.org/2000/svg" xmlns:xlink="http://www.w3.org/1999/xlink" width="109" height="95.999" viewBox="0 0 109 95.999">
  <defs>
    <filter id="Uni贸n_1" x="0" y="0" width="109" height="95.999" filterUnits="userSpaceOnUse">
      <feOffset dy="3" input="SourceAlpha"/>
      <feGaussianBlur stdDeviation="3" result="blur"/>
      <feFlood flood-opacity="0.161"/>
      <feComposite operator="in" in2="blur"/>
      <feComposite in="SourceGraphic"/>
    </filter>
  </defs>
  <g transform="matrix(1, 0, 0, 1, 0, 0)" filter="url(#Uni贸n_1)">
    <g id="Uni贸n_1-2" data-name="Uni贸n 1" transform="translate(417 -1991)" fill="#1e1e20">
      <path d="M -358.5001220703125 2073.85302734375 L -358.5001220703125 2055.999755859375 L -358.5001220703125 2055.499755859375 L -359.0001220703125 2055.499755859375 L -407.4996948242188 2055.499755859375 L -407.4996948242188 2017.5 L -359.0001220703125 2017.5 L -358.5001220703125 2017.5 L -358.5001220703125 2017 L -358.5001220703125 1998.146728515625 L -317.734619140625 2035.999877929688 L -358.5001220703125 2073.85302734375 Z" stroke="none"/>
      <path d="M -358.0001220703125 2072.706298828125 L -318.4694519042969 2035.999877929688 L -358.0001220703125 1999.293334960938 L -358.0001220703125 2018 L -406.9996948242188 2018 L -406.9996948242188 2054.999755859375 L -358.0001220703125 2054.999755859375 L -358.0001220703125 2072.706298828125 M -359.0001220703125 2074.99951171875 L -359.0001220703125 2055.999755859375 L -407.9996948242188 2055.999755859375 L -407.9996948242188 2017 L -359.0001220703125 2017 L -359.0001220703125 1997.000122070312 L -316.9998168945312 2035.999877929688 L -359.0001220703125 2074.99951171875 Z" stroke="none" fill="#434343"/>
    </g>
  </g>
</svg>
